<?xml version="1.0" standalone="no"?>
<!DOCTYPE svg PUBLIC "-//W3C//DTD SVG 20010904//EN"
 "http://www.w3.org/TR/2001/REC-SVG-20010904/DTD/svg10.dtd">
<svg version="1.0" xmlns="http://www.w3.org/2000/svg"
 width="1000.000000pt" height="1000.000000pt" viewBox="0 0 1000.000000 1000.000000"
 preserveAspectRatio="xMidYMid meet">
<metadata>
Created by potrace 1.14, written by Peter Selinger 2001-2017
</metadata>
<g transform="translate(0.000000,1000.000000) scale(0.100000,-0.100000)"
fill="#000000" stroke="none">
<path d="M4738 9995 c-2 -1 -52 -6 -113 -9 -60 -4 -119 -9 -130 -11 -11 -2
-47 -7 -80 -10 -33 -3 -71 -7 -84 -10 -14 -2 -45 -7 -70 -10 -25 -3 -57 -7
-71 -10 -14 -3 -38 -7 -55 -10 -71 -12 -107 -19 -210 -42 -38 -8 -81 -18 -95
-20 -176 -36 -579 -170 -790 -263 -52 -23 -101 -42 -107 -43 -7 0 -13 -4 -13
-9 0 -4 -5 -8 -11 -8 -14 0 -223 -103 -227 -112 -2 -5 -12 -8 -23 -8 -10 0
-19 -4 -19 -10 0 -5 -5 -10 -10 -10 -12 0 -234 -128 -296 -171 -24 -16 -47
-29 -52 -29 -5 0 -17 -9 -27 -20 -10 -11 -22 -20 -27 -20 -8 0 -66 -38 -78
-51 -3 -3 -34 -25 -70 -50 -35 -24 -74 -51 -85 -61 -11 -9 -49 -39 -85 -67
-215 -167 -515 -452 -664 -629 -38 -45 -73 -82 -78 -82 -4 0 -8 -6 -8 -14 0
-8 -4 -16 -9 -18 -13 -5 -153 -186 -248 -322 -82 -116 -181 -273 -261 -411
-41 -72 -194 -372 -198 -390 -2 -5 -21 -53 -44 -105 -22 -52 -45 -104 -49
-115 -11 -26 -35 -88 -37 -95 0 -3 -6 -18 -13 -35 -7 -16 -14 -34 -15 -40 -1
-5 -21 -66 -43 -135 -38 -114 -106 -360 -117 -420 -2 -14 -11 -56 -19 -95 -9
-38 -19 -88 -23 -110 -4 -22 -9 -47 -11 -55 -3 -18 -14 -85 -18 -120 -1 -14
-5 -44 -9 -67 -6 -44 -11 -80 -21 -171 -26 -220 -26 -798 0 -1009 14 -115 26
-210 30 -233 2 -14 7 -45 10 -70 3 -25 8 -52 11 -61 2 -10 6 -30 9 -45 2 -16
10 -61 19 -99 8 -39 17 -82 20 -95 25 -132 164 -589 209 -692 8 -18 22 -51 30
-73 8 -22 27 -67 42 -100 14 -33 34 -76 42 -95 116 -259 281 -547 460 -801 96
-137 220 -298 288 -374 11 -13 49 -56 85 -96 115 -130 351 -361 464 -454 27
-22 56 -47 65 -56 33 -32 253 -198 367 -277 51 -35 264 -172 268 -172 4 0 140
-78 176 -100 37 -23 362 -180 373 -180 7 0 17 -4 22 -9 6 -5 53 -26 105 -46
52 -20 104 -41 115 -46 100 -45 603 -191 702 -204 11 -2 29 -6 40 -9 10 -3 34
-8 53 -11 19 -3 42 -8 50 -10 8 -2 31 -7 50 -10 19 -3 60 -10 90 -15 71 -11
134 -20 190 -25 25 -3 63 -7 85 -10 127 -15 230 -19 500 -19 272 0 370 4 505
19 25 2 66 7 92 10 44 5 62 7 153 20 78 11 115 18 235 41 139 28 375 86 446
110 26 9 54 17 63 19 30 7 246 82 269 94 12 6 22 10 22 7 0 -2 42 14 93 36 50
22 97 41 102 42 37 8 360 169 490 244 150 86 384 236 418 267 15 14 27 23 27
20 0 -4 13 4 29 17 16 12 41 32 56 43 16 11 33 25 39 30 6 6 45 36 86 67 41
31 94 74 116 95 23 21 65 58 95 83 29 25 114 106 189 180 117 117 183 187 302
324 49 56 170 210 216 276 26 36 49 67 52 70 3 3 10 13 15 22 6 9 40 61 76
115 36 54 74 114 84 133 10 19 21 37 24 40 10 7 117 199 176 315 73 142 217
478 217 502 0 4 3 13 8 18 6 8 37 95 47 130 1 6 12 37 23 70 11 33 22 67 23
75 1 8 6 20 9 26 4 6 9 21 11 35 3 13 13 50 22 82 33 114 89 371 109 505 11
72 19 119 21 134 2 9 7 48 10 85 4 37 9 76 11 86 18 100 26 692 11 877 -15
184 -29 299 -54 445 -8 50 -17 104 -20 120 -28 183 -167 671 -244 860 -7 17
-13 35 -14 40 -2 6 -12 33 -25 60 -12 28 -31 70 -42 95 -10 25 -23 53 -29 62
-5 10 -9 25 -9 33 0 8 -4 15 -10 15 -5 0 -10 6 -10 14 0 13 -117 247 -159 316
-11 19 -31 55 -45 80 -102 188 -354 543 -530 745 -38 43 -81 93 -95 109 -49
56 -297 301 -365 361 -38 33 -80 71 -95 84 -103 92 -298 238 -492 367 -103 68
-189 124 -193 124 -3 0 -44 23 -91 51 -80 47 -338 179 -415 212 -19 8 -60 26
-90 39 -207 94 -662 238 -887 283 -10 1 -52 10 -93 19 -41 8 -91 18 -110 21
-19 3 -46 7 -60 10 -14 3 -41 7 -60 9 -19 3 -51 7 -70 10 -50 7 -115 15 -190
21 -36 3 -83 8 -105 11 -42 6 -641 14 -647 9z"/>
</g>
</svg>
